HIERARCHY
ROOT pelvis
{
	OFFSET 0.000000 0.000000 0.000000
	CHANNELS 6 Xposition Yposition Zposition Zrotation Xrotation Yrotation
	JOINT lfemur
	{
		OFFSET 11.446000 0.000000 0.000000
		CHANNELS 3 Zrotation Xrotation Yrotation
		JOINT ltibia
		{
			OFFSET 0.000000 -42.030400 0.000000
			CHANNELS 3 Zrotation Xrotation Yrotation
			JOINT lfoot
			{
				OFFSET 0.000000 -39.930200 0.000000
				CHANNELS 3 Zrotation Xrotation Yrotation
				JOINT ltoes
				{
					OFFSET 0.000000 0.000000 11.775800
					CHANNELS 3 Zrotation Xrotation Yrotation
					End Site
					{
					    OFFSET 0.000000 0.000000 5.000000
					}
				}
			}
		}
	}
	JOINT rfemur
	{
		OFFSET -11.446000 0.000000 0.000000
		CHANNELS 3 Zrotation Xrotation Yrotation
		JOINT rtibia
		{
			OFFSET 0.000000 -42.030400 0.000000
			CHANNELS 3 Zrotation Xrotation Yrotation
			JOINT rfoot
			{
				OFFSET 0.000000 -39.930200 0.000000
				CHANNELS 3 Zrotation Xrotation Yrotation
				JOINT rtoes
				{
					OFFSET 0.000000 0.000000 11.775800
					CHANNELS 3 Zrotation Xrotation Yrotation
					End Site
					{
					    OFFSET 0.000000 0.000000 5.000000
					}
				}
			}
		}
	}
	JOINT thorax
	{
		OFFSET 0.000000 11.255600 -5.000000
		CHANNELS 3 Zrotation Xrotation Yrotation
		JOINT head
		{
			OFFSET 0.000000 43.799300 0.000000
			CHANNELS 3 Zrotation Xrotation Yrotation
			End Site
			{
			    OFFSET 0.000000 5.000000 0.000000
			}
		}
		JOINT lclavicle
		{
			OFFSET 0.000000 39.863000 0.000000
			CHANNELS 3 Zrotation Xrotation Yrotation
			JOINT lhumerus
			{
				OFFSET 17.380600 4.958300 0.000000
				CHANNELS 3 Zrotation Xrotation Yrotation
				JOINT lradius
				{
					OFFSET 0.000000 -27.561300 0.000000
					CHANNELS 3 Zrotation Xrotation Yrotation
					JOINT lhand
					{
						OFFSET 0.000000 -26.933000 0.000000
						CHANNELS 3 Zrotation Xrotation Yrotation
						End Site
						{
						    OFFSET 0.000000 -5.000000 0.000000
						}
					}
				}
			}
		}
		JOINT rclavicle
		{
			OFFSET 0.000000 39.863000 0.000000
			CHANNELS 3 Zrotation Xrotation Yrotation
			JOINT rhumerus
			{
				OFFSET -17.380600 4.958300 0.000000
				CHANNELS 3 Zrotation Xrotation Yrotation
				JOINT rradius
				{
					OFFSET 0.000000 -27.561300 0.000000
					CHANNELS 3 Zrotation Xrotation Yrotation
					JOINT rhand
					{
						OFFSET 0.000000 -26.933000 0.000000
						CHANNELS 3 Zrotation Xrotation Yrotation
						End Site
						{
						    OFFSET 0.000000 -5.000000 0.000000
						}
					}
				}
			}
		}
	}
}
MOTION
Frames: 10
Frame Time:	0.0333333
38.403600 105.172500 5.060600 14.302427 -12.156257 -94.373630 174.085699 163.399669 -175.371591 180.000000 180.000000 -177.787862 4.095382 -17.545745 -5.344205 5.491048 -1.630378 0.240929 169.444125 164.802671 179.635005 0.000000 -0.000000 1.612884 10.640367 -15.588322 1.608015 175.834851 -176.220174 178.758566 176.737353 174.513170 -162.434714 1.366862 -6.621916 -17.322688 9.151924 -25.513808 7.924029 14.575523 -3.838664 -10.292720 155.839526 -177.694959 166.673493 174.719917 159.057366 -176.191164 131.067056 170.314283 -149.770312 74.077726 -180.000000 79.716907 180.000000 -180.000000 155.470480 175.999896 -153.536827 147.500981 
32.009200 108.012700 5.255700 12.064061 -11.676540 -93.337450 174.085699 163.399669 -175.371591 180.000000 180.000000 -177.787862 4.095382 -17.545745 -5.344205 5.491048 -1.630378 0.240929 169.444125 164.802671 179.635005 0.000000 -0.000000 1.612884 10.640367 -15.588322 1.608015 175.834851 -176.220174 178.758566 176.737353 174.513170 -162.434714 1.366862 -6.621916 -17.322688 9.151924 -25.513808 7.924029 14.575523 -3.838664 -10.292720 155.839526 -177.694959 166.673493 174.719917 159.057366 -176.191164 131.067056 170.314283 -149.770312 74.077726 -180.000000 79.716907 180.000000 -180.000000 155.470480 175.999896 -153.536827 147.500981 
26.048400 110.058000 5.405300 11.575865 -10.921954 -93.288498 174.085699 163.399669 -175.371591 180.000000 180.000000 -177.787862 4.095382 -17.545745 -5.344205 5.491048 -1.630378 0.240929 169.444125 164.802671 179.635005 0.000000 -0.000000 1.612884 10.640367 -15.588322 1.608015 175.834851 -176.220174 178.758566 176.737353 174.513170 -162.434714 1.366862 -6.621916 -17.322688 9.151924 -25.513808 7.924029 14.575523 -3.838664 -10.292720 155.839526 -177.694959 166.673493 174.719917 159.057366 -176.191164 131.067056 170.314283 -149.770312 74.077726 -180.000000 79.716907 180.000000 -180.000000 155.470480 175.999896 -153.536827 147.500981 
20.305100 111.016300 5.402900 11.564351 -9.834794 -94.698472 174.085699 163.399669 -175.371591 180.000000 180.000000 -177.787862 4.095382 -17.545745 -5.344205 5.491048 -1.630378 0.240929 169.444125 164.802671 179.635005 0.000000 -0.000000 1.612884 10.640367 -15.588322 1.608015 175.834851 -176.220174 178.758566 176.737353 174.513170 -162.434714 1.366862 -6.621916 -17.322688 9.151924 -25.513808 7.924029 14.575523 -3.838664 -10.292720 155.839526 -177.694959 166.673493 174.719917 159.057366 -176.191164 131.067056 170.314283 -149.770312 74.077726 -180.000000 79.716907 180.000000 -180.000000 155.470480 175.999896 -153.536827 147.500981 
14.333500 110.910600 5.199300 10.834751 -8.337475 -95.753064 174.085699 163.399669 -175.371591 180.000000 180.000000 -177.787862 4.095382 -17.545745 -5.344205 5.491048 -1.630378 0.240929 169.444125 164.802671 179.635005 0.000000 -0.000000 1.612884 10.640367 -15.588322 1.608015 175.834851 -176.220174 178.758566 176.737353 174.513170 -162.434714 1.366862 -6.621916 -17.322688 9.151924 -25.513808 7.924029 14.575523 -3.838664 -10.292720 155.839526 -177.694959 166.673493 174.719917 159.057366 -176.191164 131.067056 170.314283 -149.770312 74.077726 -180.000000 79.716907 180.000000 -180.000000 155.470480 175.999896 -153.536827 147.500981 
8.086100 109.780700 4.992400 9.918867 -7.145968 -95.810302 174.085699 163.399669 -175.371591 180.000000 180.000000 -177.787862 4.095382 -17.545745 -5.344205 5.491048 -1.630378 0.240929 169.444125 164.802671 179.635005 0.000000 -0.000000 1.612884 10.640367 -15.588322 1.608015 175.834851 -176.220174 178.758566 176.737353 174.513170 -162.434714 1.366862 -6.621916 -17.322688 9.151924 -25.513808 7.924029 14.575523 -3.838664 -10.292720 155.839526 -177.694959 166.673493 174.719917 159.057366 -176.191164 131.067056 170.314283 -149.770312 74.077726 -180.000000 79.716907 180.000000 -180.000000 155.470480 175.999896 -153.536827 147.500981 
1.600800 107.644400 4.987500 9.725146 -6.389479 -95.187380 174.085699 163.399669 -175.371591 180.000000 180.000000 -177.787862 4.095382 -17.545745 -5.344205 5.491048 -1.630378 0.240929 169.444125 164.802671 179.635005 0.000000 -0.000000 1.612884 10.640367 -15.588322 1.608015 175.834851 -176.220174 178.758566 176.737353 174.513170 -162.434714 1.366862 -6.621916 -17.322688 9.151924 -25.513808 7.924029 14.575523 -3.838664 -10.292720 155.839526 -177.694959 166.673493 174.719917 159.057366 -176.191164 131.067056 170.314283 -149.770312 74.077726 -180.000000 79.716907 180.000000 -180.000000 155.470480 175.999896 -153.536827 147.500981 
-5.129200 104.294200 4.917500 9.678166 -5.598743 -94.281217 174.085699 163.399669 -175.371591 180.000000 180.000000 -177.787862 4.095382 -17.545745 -5.344205 5.491048 -1.630378 0.240929 169.444125 164.802671 179.635005 0.000000 -0.000000 1.612884 10.640367 -15.588322 1.608015 175.834851 -176.220174 178.758566 176.737353 174.513170 -162.434714 1.366862 -6.621916 -17.322688 9.151924 -25.513808 7.924029 14.575523 -3.838664 -10.292720 155.839526 -177.694959 166.673493 174.719917 159.057366 -176.191164 131.067056 170.314283 -149.770312 74.077726 -180.000000 79.716907 180.000000 -180.000000 155.470480 175.999896 -153.536827 147.500981 
-11.983800 99.626700 4.815200 9.576593 -5.222225 -93.625745 174.085699 163.399669 -175.371591 180.000000 180.000000 -177.787862 4.095382 -17.545745 -5.344205 5.491048 -1.630378 0.240929 169.444125 164.802671 179.635005 0.000000 -0.000000 1.612884 10.640367 -15.588322 1.608015 175.834851 -176.220174 178.758566 176.737353 174.513170 -162.434714 1.366862 -6.621916 -17.322688 9.151924 -25.513808 7.924029 14.575523 -3.838664 -10.292720 155.839526 -177.694959 166.673493 174.719917 159.057366 -176.191164 131.067056 170.314283 -149.770312 74.077726 -180.000000 79.716907 180.000000 -180.000000 155.470480 175.999896 -153.536827 147.500981 
-18.915500 93.843900 4.926100 9.032453 -5.599795 -93.073813 174.085699 163.399669 -175.371591 180.000000 180.000000 -177.787862 4.095382 -17.545745 -5.344205 5.491048 -1.630378 0.240929 169.444125 164.802671 179.635005 0.000000 -0.000000 1.612884 10.640367 -15.588322 1.608015 175.834851 -176.220174 178.758566 176.737353 174.513170 -162.434714 1.366862 -6.621916 -17.322688 9.151924 -25.513808 7.924029 14.575523 -3.838664 -10.292720 155.839526 -177.694959 166.673493 174.719917 159.057366 -176.191164 131.067056 170.314283 -149.770312 74.077726 -180.000000 79.716907 180.000000 -180.000000 155.470480 175.999896 -153.536827 147.500981 
